<mxfile host="app.diagrams.net" agent="Mozilla/5.0 (Windows NT 10.0; Win64; x64) AppleWebKit/537.36 (KHTML, like Gecko) Chrome/134.0.0.0 Safari/537.36" version="26.2.6">
  <diagram name="第 1 页" id="U52jCqSnqMBKtB3RKadJ">
    <mxGraphModel dx="788" dy="505" grid="1" gridSize="10" guides="1" tooltips="1" connect="1" arrows="1" fold="1" page="1" pageScale="1" pageWidth="827" pageHeight="1169" math="0" shadow="0">
      <root>
        <mxCell id="0" />
        <mxCell id="1" parent="0" />
        <mxCell id="1QyOtjcJ72h4DhJNJH0E-13" style="edgeStyle=orthogonalEdgeStyle;rounded=0;orthogonalLoop=1;jettySize=auto;html=1;exitX=1;exitY=0.5;exitDx=0;exitDy=0;entryX=0;entryY=0.5;entryDx=0;entryDy=0;" parent="1" source="1QyOtjcJ72h4DhJNJH0E-1" target="1QyOtjcJ72h4DhJNJH0E-4" edge="1">
          <mxGeometry relative="1" as="geometry" />
        </mxCell>
        <mxCell id="1QyOtjcJ72h4DhJNJH0E-1" value="&lt;font style=&quot;font-size: 15px;&quot;&gt;gpio_desc&amp;nbsp;&lt;/font&gt;" style="rounded=1;whiteSpace=wrap;html=1;fillColor=#fff2cc;strokeColor=#d6b656;" parent="1" vertex="1">
          <mxGeometry x="350" y="230" width="120" height="60" as="geometry" />
        </mxCell>
        <mxCell id="1QyOtjcJ72h4DhJNJH0E-3" style="edgeStyle=orthogonalEdgeStyle;rounded=0;orthogonalLoop=1;jettySize=auto;html=1;exitX=1;exitY=0.5;exitDx=0;exitDy=0;entryX=0;entryY=0.5;entryDx=0;entryDy=0;" parent="1" source="1QyOtjcJ72h4DhJNJH0E-2" target="1QyOtjcJ72h4DhJNJH0E-1" edge="1">
          <mxGeometry relative="1" as="geometry" />
        </mxCell>
        <mxCell id="1QyOtjcJ72h4DhJNJH0E-2" value="&lt;font style=&quot;font-size: 15px;&quot;&gt;devm_gpiod_get&lt;/font&gt;" style="rounded=1;whiteSpace=wrap;html=1;fillColor=#ffe6cc;strokeColor=#d79b00;" parent="1" vertex="1">
          <mxGeometry x="200" y="230" width="120" height="60" as="geometry" />
        </mxCell>
        <mxCell id="1QyOtjcJ72h4DhJNJH0E-11" style="edgeStyle=orthogonalEdgeStyle;rounded=0;orthogonalLoop=1;jettySize=auto;html=1;exitX=1;exitY=0.5;exitDx=0;exitDy=0;entryX=0;entryY=0.5;entryDx=0;entryDy=0;" parent="1" source="1QyOtjcJ72h4DhJNJH0E-4" target="1QyOtjcJ72h4DhJNJH0E-6" edge="1">
          <mxGeometry relative="1" as="geometry" />
        </mxCell>
        <mxCell id="1QyOtjcJ72h4DhJNJH0E-4" value="&lt;span style=&quot;font-size: 15px;&quot;&gt;init&lt;/span&gt;" style="rounded=1;whiteSpace=wrap;html=1;fillColor=#dae8fc;strokeColor=#6c8ebf;" parent="1" vertex="1">
          <mxGeometry x="500" y="230" width="120" height="60" as="geometry" />
        </mxCell>
        <mxCell id="1QyOtjcJ72h4DhJNJH0E-9" style="edgeStyle=orthogonalEdgeStyle;rounded=0;orthogonalLoop=1;jettySize=auto;html=1;exitX=0.75;exitY=0;exitDx=0;exitDy=0;entryX=0.75;entryY=1;entryDx=0;entryDy=0;" parent="1" source="1QyOtjcJ72h4DhJNJH0E-6" target="1QyOtjcJ72h4DhJNJH0E-7" edge="1">
          <mxGeometry relative="1" as="geometry" />
        </mxCell>
        <mxCell id="1QyOtjcJ72h4DhJNJH0E-6" value="&lt;font style=&quot;font-size: 11px;&quot;&gt;schedule_delayed_work&lt;/font&gt;" style="rounded=1;whiteSpace=wrap;html=1;fillColor=#d5e8d4;strokeColor=#82b366;" parent="1" vertex="1">
          <mxGeometry x="650" y="230" width="120" height="60" as="geometry" />
        </mxCell>
        <mxCell id="1QyOtjcJ72h4DhJNJH0E-8" style="edgeStyle=orthogonalEdgeStyle;rounded=0;orthogonalLoop=1;jettySize=auto;html=1;exitX=0.25;exitY=1;exitDx=0;exitDy=0;entryX=0.25;entryY=0;entryDx=0;entryDy=0;" parent="1" source="1QyOtjcJ72h4DhJNJH0E-7" target="1QyOtjcJ72h4DhJNJH0E-6" edge="1">
          <mxGeometry relative="1" as="geometry" />
        </mxCell>
        <mxCell id="1QyOtjcJ72h4DhJNJH0E-7" value="&lt;span style=&quot;font-size: 15px;&quot;&gt;polling work&lt;/span&gt;" style="rounded=1;whiteSpace=wrap;html=1;fillColor=#e1d5e7;strokeColor=#9673a6;" parent="1" vertex="1">
          <mxGeometry x="650" y="140" width="120" height="60" as="geometry" />
        </mxCell>
        <mxCell id="1QyOtjcJ72h4DhJNJH0E-10" value="&lt;font style=&quot;font-size: 15px;&quot;&gt;set &amp;amp; call&lt;/font&gt;" style="text;html=1;align=center;verticalAlign=middle;whiteSpace=wrap;rounded=0;" parent="1" vertex="1">
          <mxGeometry x="590" y="200" width="90" height="30" as="geometry" />
        </mxCell>
        <mxCell id="1QyOtjcJ72h4DhJNJH0E-12" value="&lt;font style=&quot;font-size: 15px;&quot;&gt;call&lt;/font&gt;" style="text;html=1;align=center;verticalAlign=middle;whiteSpace=wrap;rounded=0;" parent="1" vertex="1">
          <mxGeometry x="720" y="200" width="90" height="30" as="geometry" />
        </mxCell>
        <mxCell id="rPw_VBf728fm7aQ1u2Je-4" style="edgeStyle=orthogonalEdgeStyle;rounded=0;orthogonalLoop=1;jettySize=auto;html=1;exitX=1;exitY=0.5;exitDx=0;exitDy=0;entryX=0;entryY=0.5;entryDx=0;entryDy=0;" edge="1" parent="1" source="rPw_VBf728fm7aQ1u2Je-1" target="rPw_VBf728fm7aQ1u2Je-2">
          <mxGeometry relative="1" as="geometry" />
        </mxCell>
        <mxCell id="rPw_VBf728fm7aQ1u2Je-1" value="&lt;font style=&quot;font-size: 11px;&quot;&gt;of_find_node_by_name&lt;/font&gt;" style="rounded=1;whiteSpace=wrap;html=1;fillColor=#ffe6cc;strokeColor=#d79b00;" vertex="1" parent="1">
          <mxGeometry x="50" y="140" width="120" height="60" as="geometry" />
        </mxCell>
        <mxCell id="rPw_VBf728fm7aQ1u2Je-5" style="edgeStyle=orthogonalEdgeStyle;rounded=0;orthogonalLoop=1;jettySize=auto;html=1;exitX=1;exitY=0.5;exitDx=0;exitDy=0;entryX=0;entryY=0.5;entryDx=0;entryDy=0;" edge="1" parent="1" source="rPw_VBf728fm7aQ1u2Je-2" target="rPw_VBf728fm7aQ1u2Je-3">
          <mxGeometry relative="1" as="geometry" />
        </mxCell>
        <mxCell id="rPw_VBf728fm7aQ1u2Je-2" value="&lt;font style=&quot;font-size: 11px;&quot;&gt;of_find_node_by_name&lt;/font&gt;" style="rounded=1;whiteSpace=wrap;html=1;fillColor=#ffe6cc;strokeColor=#d79b00;" vertex="1" parent="1">
          <mxGeometry x="200" y="140" width="120" height="60" as="geometry" />
        </mxCell>
        <mxCell id="rPw_VBf728fm7aQ1u2Je-7" style="edgeStyle=orthogonalEdgeStyle;rounded=0;orthogonalLoop=1;jettySize=auto;html=1;exitX=1;exitY=0.5;exitDx=0;exitDy=0;entryX=0.5;entryY=0;entryDx=0;entryDy=0;" edge="1" parent="1" source="rPw_VBf728fm7aQ1u2Je-3" target="1QyOtjcJ72h4DhJNJH0E-4">
          <mxGeometry relative="1" as="geometry" />
        </mxCell>
        <mxCell id="rPw_VBf728fm7aQ1u2Je-3" value="&lt;font style=&quot;font-size: 15px;&quot;&gt;GPIO number&lt;/font&gt;" style="rounded=1;whiteSpace=wrap;html=1;fillColor=#fff2cc;strokeColor=#d6b656;" vertex="1" parent="1">
          <mxGeometry x="350" y="140" width="120" height="60" as="geometry" />
        </mxCell>
      </root>
    </mxGraphModel>
  </diagram>
</mxfile>
